<svg xmlns="http://www.w3.org/2000/svg" viewBox="0 0 512 512" width="512" height="512">
  <!-- Rounded square background (indigo-600) -->
  <rect width="512" height="512" rx="96" fill="#4f46e5"/>
  <g transform="translate(256,256) scale(17.07)" fill="none" stroke="#ffffff" stroke-width="1.5" stroke-linecap="round" stroke-linejoin="round">
    <g transform="translate(-12,-13.5)">
      <!-- Entablature / top beam -->
      <line x1="1" y1="5" x2="23" y2="5"/>
      <line x1="1" y1="7" x2="23" y2="7"/>
      <!-- Four pillars -->
      <line x1="2" y1="7" x2="2" y2="22"/>
      <line x1="8.5" y1="7" x2="8.5" y2="22"/>
      <line x1="15.5" y1="7" x2="15.5" y2="22"/>
      <line x1="22" y1="7" x2="22" y2="22"/>
      <!-- Center arch (tall) -->
      <path d="M8.5 22V14a3.5 3.5 0 0 1 7 0v8"/>
      <!-- Left arch (shorter) -->
      <path d="M2 22v-4.5a3.25 3.25 0 0 1 6.5 0V22"/>
      <!-- Right arch (shorter) -->
      <path d="M15.5 22v-4.5a3.25 3.25 0 0 1 6.5 0V22"/>
      <!-- Ground line -->
      <line x1="1" y1="22" x2="23" y2="22"/>
    </g>
  </g>
</svg>
